<svg xmlns="http://www.w3.org/2000/svg" fill-rule="evenodd" stroke-linejoin="round" stroke-miterlimit="2" clip-rule="evenodd" viewBox="0 0 64 64" id="avocado" width="50" height="50"><g transform="translate(-428 -168)"><path fill="#377623" d="M200.113,148C187.291,148 180.226,142.211 180.226,132C180.226,121.789 186.744,120.193 191.226,107C193.207,101.168 196.711,100 200.113,100C203.515,100 207.019,101.168 209,107C213.482,120.193 220,121.789 220,132C220,142.211 212.934,148 200.113,148Z" transform="translate(251.774 80)"></path><path fill="#458b2f" d="M188.226,132C188.226,127.829 190.147,125.901 192.084,122.981C193.732,120.497 195.513,117.643 197.178,113.794C197.616,112.781 197.15,111.603 196.137,111.164C195.124,110.726 193.945,111.193 193.507,112.206C191.954,115.795 190.287,118.454 188.751,120.77C186.36,124.374 184.226,126.852 184.226,132C184.226,133.104 185.122,134 186.226,134C187.33,134 188.226,133.104 188.226,132ZM199.426,108.129C199.462,108.076 199.492,108.024 199.539,107.992C200.461,107.385 200.716,106.143 200.109,105.222C199.501,104.3 198.26,104.045 197.338,104.653C196.88,104.954 196.478,105.355 196.125,105.871C195.501,106.782 195.735,108.027 196.646,108.651C197.557,109.274 198.803,109.04 199.426,108.129Z" transform="translate(251.774 80)"></path><path fill="#d3ff89" d="M200.113,148C187.291,148 180.226,142.211 180.226,132C180.226,121.789 186.744,120.193 191.226,107C193.207,101.168 196.711,100 200.113,100C203.515,100 207.019,101.168 209,107C213.482,120.193 220,121.789 220,132C220,142.211 212.934,148 200.113,148Z" transform="translate(268 80)"></path><path fill="#71bb55" d="M212.84,122.818C213.114,123.234 213.378,123.642 213.63,124.051C215.01,126.286 216,128.506 216,132C216,135.025 215.247,137.553 213.634,139.465C210.991,142.6 206.341,144 200.113,144C193.885,144 189.235,142.6 186.591,139.465C185.88,138.621 184.617,138.513 183.773,139.225C182.929,139.937 182.822,141.199 183.533,142.043C186.799,145.916 192.42,148 200.113,148C207.806,148 213.427,145.916 216.692,142.043C218.87,139.461 220,136.085 220,132C220,127.586 218.777,124.773 217.034,121.949C216.762,121.508 216.476,121.067 216.181,120.618C215.574,119.696 214.332,119.441 213.41,120.048C212.488,120.655 212.233,121.897 212.84,122.818ZM184.249,132.896C184.233,132.602 184.226,132.303 184.226,132C184.226,130.896 183.33,130 182.226,130C181.122,130 180.226,130.896 180.226,132C180.226,132.374 180.235,132.742 180.254,133.104C180.312,134.207 181.253,135.055 182.356,134.997C183.458,134.94 184.306,133.998 184.249,132.896ZM187.385,122.818C187.54,122.584 187.697,122.348 187.856,122.11C189.053,120.315 190.373,118.372 191.684,115.952C192.041,115.294 192.397,114.6 192.749,113.865C193.531,112.233 194.296,110.398 195.013,108.287C195.632,106.464 196.37,105.291 197.338,104.653C198.196,104.087 199.171,104 200.113,104C201.055,104 202.03,104.087 202.888,104.653C203.856,105.291 204.593,106.464 205.213,108.287C205.568,109.332 206.704,109.892 207.75,109.537C208.795,109.182 209.355,108.045 209,107C208.009,104.084 206.638,102.334 205.089,101.313C203.54,100.292 201.814,100 200.113,100C198.412,100 196.685,100.292 195.137,101.313C193.588,102.334 192.216,104.084 191.226,107C190.566,108.943 189.862,110.634 189.142,112.135C188.82,112.809 188.494,113.444 188.167,114.048C186.923,116.345 185.664,118.186 184.528,119.89C184.365,120.135 184.203,120.378 184.045,120.618C183.438,121.54 183.693,122.781 184.615,123.389C185.537,123.996 186.778,123.74 187.385,122.818Z" transform="translate(268 80)"></path><circle cx="47.5" cy="213.5" r="7.5" fill="#764923" transform="translate(407.753 -59.283) scale(1.26837)"></circle><path fill="#8b613d" d="M41.997,213.5C41.997,210.463 44.463,207.997 47.5,207.997C48.602,207.997 49.497,207.102 49.497,206C49.497,204.898 48.602,204.003 47.5,204.003C42.259,204.003 38.003,208.259 38.003,213.5C38.003,214.602 38.898,215.497 40,215.497C41.102,215.497 41.997,214.602 41.997,213.5Z" transform="translate(420.419 -2.35) scale(1.0017)"></path><path fill="#673b16" d="M41.997,213.5C41.997,210.463 44.463,207.997 47.5,207.997C48.602,207.997 49.497,207.102 49.497,206C49.497,204.898 48.602,204.003 47.5,204.003C42.259,204.003 38.003,208.259 38.003,213.5C38.003,214.602 38.898,215.497 40,215.497C41.102,215.497 41.997,214.602 41.997,213.5Z" transform="rotate(180 257.79 212.688) scale(1.0017)"></path><path d="M47.5,204.423C42.49,204.423 38.423,208.49 38.423,213.5C38.423,218.51 42.49,222.577 47.5,222.577C52.51,222.577 56.577,218.51 56.577,213.5C56.577,208.49 52.51,204.423 47.5,204.423ZM47.5,207.577C50.769,207.577 53.423,210.231 53.423,213.5C53.423,216.769 50.769,219.423 47.5,219.423C44.231,219.423 41.577,216.769 41.577,213.5C41.577,210.231 44.231,207.577 47.5,207.577Z" transform="translate(407.753 -59.283) scale(1.26837)"></path><path d="M468.014,230L468.113,230C476.539,230 482.644,227.575 486.221,223.333C488.681,220.416 490,216.615 490,212C490,206.406 488.25,203.16 485.851,199.518C483.733,196.303 481.061,192.735 478.894,186.357C477.717,182.893 476.03,180.856 474.19,179.643C472.884,178.782 471.479,178.328 470.051,178.128C470.017,176.446 469.784,173.942 468.891,171.349C468.532,170.305 467.393,169.75 466.349,170.109C465.305,170.468 464.75,171.607 465.109,172.651C465.835,174.759 466.025,176.792 466.056,178.145C464.668,178.353 463.306,178.806 462.036,179.643C461.332,180.107 460.651,180.692 460.011,181.431C458.265,179.369 456.188,178.472 454.052,178.151C454.019,176.469 453.788,173.954 452.891,171.349C452.532,170.305 451.393,169.75 450.349,170.109C449.305,170.468 448.75,171.607 449.109,172.651C449.829,174.743 450.022,176.761 450.055,178.114C448.59,178.305 447.148,178.761 445.81,179.643C443.97,180.856 442.283,182.893 441.106,186.357C438.939,192.735 436.267,196.303 434.149,199.518C431.75,203.16 430,206.406 430,212C430,216.615 431.319,220.416 433.779,223.333C437.342,227.558 443.413,229.981 451.788,230L451.887,230C454.9,230 457.614,229.694 460.013,229.107C462.387,229.687 465.057,229.993 468.014,230ZM468.051,182C466.749,182.006 465.422,182.202 464.237,182.983C463.318,183.589 462.508,184.531 461.824,185.919C461.807,185.957 461.789,185.996 461.769,186.033C461.537,186.516 461.321,187.051 461.119,187.643C459.956,191.067 458.661,193.742 457.373,195.993C456.824,196.951 455.601,197.284 454.643,196.736C453.685,196.187 453.353,194.965 453.901,194.007C455.081,191.944 456.267,189.493 457.332,186.357C457.471,185.946 457.618,185.556 457.771,185.184C456.197,182.592 454.017,182 451.887,182L451.825,182C450.524,182.006 449.196,182.202 448.012,182.983C446.753,183.812 445.698,185.274 444.894,187.643C442.579,194.458 439.752,198.284 437.49,201.718C435.509,204.725 434,207.382 434,212C434,215.555 434.942,218.507 436.837,220.754C439.791,224.258 444.927,226 451.887,226C452.229,226 452.566,225.996 452.897,225.986C451.975,225.33 451.146,224.598 450.412,223.796C450.408,223.792 450.404,223.787 450.4,223.783C450.265,223.635 450.133,223.485 450.004,223.333C447.545,220.416 446.226,216.615 446.226,212C446.226,210.896 447.122,210 448.226,210C449.33,210 450.226,210.896 450.226,212C450.226,215.555 451.168,218.507 453.062,220.754C453.154,220.863 453.248,220.97 453.344,221.076C453.35,221.082 453.356,221.088 453.362,221.095C455.084,222.975 457.493,224.312 460.513,225.114C460.575,225.13 460.637,225.15 460.696,225.172C462.865,225.724 465.345,226 468.113,226C475.073,226 480.209,224.258 483.163,220.754C485.058,218.507 486,215.555 486,212C486,207.382 484.491,204.725 482.51,201.718C480.248,198.284 477.421,194.458 475.106,187.643C474.302,185.274 473.247,183.812 471.988,182.983C470.785,182.19 469.434,182 468.113,182L468.051,182ZM450.213,199.765C449.952,200.163 449.7,200.558 449.457,200.952C448.879,201.892 449.173,203.125 450.113,203.703C451.053,204.282 452.286,203.988 452.864,203.048C453.088,202.685 453.321,202.321 453.561,201.953C454.165,201.029 453.905,199.788 452.981,199.185C452.057,198.581 450.817,198.841 450.213,199.765Z"></path></g><defs><rect width="10" height="10"></rect></defs></svg>