<?xml version="1.0" standalone="no"?>
<!DOCTYPE svg PUBLIC "-//W3C//DTD SVG 20010904//EN"
 "http://www.w3.org/TR/2001/REC-SVG-20010904/DTD/svg10.dtd">
<svg version="1.0" xmlns="http://www.w3.org/2000/svg"
 width="22.000000pt" height="22.000000pt" viewBox="0 0 1238.000000 1220.000000"
 preserveAspectRatio="xMidYMid meet">

<g transform="translate(0.000000,1220.000000) scale(0.100000,-0.100000)"
fill="#000000" stroke="none">
<path d="M3475 12166 c-73 -24 -122 -54 -168 -106 -83 -92 -81 -77 -85 -652
l-3 -507 -752 -4 c-821 -5 -787 -2 -1022 -67 -214 -60 -472 -205 -655 -368
-81 -73 -208 -223 -280 -331 -108 -161 -198 -384 -242 -602 l-23 -114 0 -3890
0 -3890 23 -114 c71 -349 219 -627 472 -882 156 -158 407 -318 615 -392 103
-36 279 -76 381 -86 59 -5 -146 -9 -606 -10 -422 -1 -686 -6 -673 -11 38 -15
180 -31 353 -40 91 -4 194 -13 230 -19 92 -15 10318 -15 10410 0 36 6 139 15
230 19 173 9 315 25 353 40 13 5 -251 10 -673 11 -424 1 -663 5 -612 10 419
40 822 253 1100 582 191 226 307 464 374 767 l23 105 0 3910 0 3910 -23 105
c-66 299 -180 536 -364 756 -172 204 -367 351 -613 461 -160 72 -336 117 -515
133 -63 5 -415 10 -782 10 l-667 0 -3 508 -3 507 -27 57 c-38 81 -105 150
-180 183 -53 24 -70 27 -132 23 -99 -6 -182 -45 -245 -114 -87 -95 -85 -78
-89 -656 l-3 -508 -2349 0 -2349 0 -3 508 -3 507 -27 57 c-34 72 -103 147
-165 178 -57 29 -166 37 -228 16z m-255 -2144 c0 -238 10 -293 66 -378 99
-149 272 -189 437 -101 65 34 115 89 149 163 21 46 23 66 26 287 l4 237 2348
0 2348 0 4 -237 c4 -267 7 -280 85 -378 121 -153 356 -157 499 -8 78 82 87
122 92 391 l4 233 716 -3 717 -4 100 -27 c119 -32 274 -107 368 -178 201 -152
352 -411 386 -662 7 -48 11 -296 11 -638 l0 -559 -5336 0 -5335 0 3 603 4 602
27 100 c65 239 214 454 406 584 130 89 299 153 446 170 39 5 375 9 748 10
l677 1 0 -208z m8360 -5396 c0 -1966 -3 -2879 -11 -2933 -14 -103 -70 -271
-120 -359 -131 -230 -368 -410 -634 -482 l-100 -27 -4470 0 -4470 0 -100 28
c-367 101 -632 365 -733 732 l-27 100 -3 2898 -2 2897 5335 0 5335 0 0 -2854z"/>
<path d="M4092 7240 c-210 -55 -378 -213 -436 -410 -9 -30 -20 -108 -23 -172
l-6 -118 -156 0 c-98 0 -182 -6 -226 -15 -83 -17 -195 -70 -263 -124 -67 -53
-146 -161 -179 -246 l-28 -70 -3 -666 -3 -666 -102 -5 c-66 -3 -113 -10 -133
-21 -39 -20 -92 -80 -100 -113 -12 -46 2 -112 31 -150 43 -56 93 -74 208 -74
l97 0 0 -647 c0 -710 -1 -695 61 -823 46 -93 160 -205 259 -254 117 -57 165
-67 368 -73 l182 -6 0 -106 c0 -180 46 -297 164 -416 120 -121 277 -185 456
-185 190 0 326 55 456 184 59 59 90 99 113 149 62 130 61 105 61 1190 l0 987
1370 0 1370 0 2 -1027 3 -1028 28 -70 c34 -85 112 -193 181 -247 201 -159 500
-185 724 -62 86 47 123 77 182 150 90 111 130 229 130 385 l0 96 178 6 c202 7
258 19 375 79 130 68 233 187 285 329 l27 74 3 658 3 657 92 0 c133 1 194 33
232 124 20 48 13 96 -21 148 -37 58 -91 80 -206 86 l-97 5 -4 646 c-3 467 -7
658 -16 691 -44 161 -163 306 -311 379 -116 56 -192 71 -382 71 l-158 0 0 93
c-1 184 -47 309 -162 432 -148 158 -384 228 -613 180 -85 -18 -213 -80 -278
-136 -73 -63 -143 -169 -172 -261 l-25 -79 0 -1010 0 -1009 -1370 0 -1369 0
-3 1013 c-3 950 -4 1015 -22 1067 -68 206 -230 356 -442 410 -100 26 -233 26
-332 0z m273 -364 c51 -23 93 -64 120 -117 13 -25 15 -305 13 -2201 l-3 -2173
-32 -45 c-89 -129 -279 -139 -385 -22 -20 22 -41 58 -47 79 -8 26 -11 700 -11
2178 0 2132 1 2140 21 2185 27 60 54 88 114 116 67 32 143 32 210 0z m4005 -3
c31 -17 65 -45 84 -71 l31 -44 3 -2183 2 -2183 -32 -48 c-45 -66 -122 -106
-206 -105 -102 0 -177 47 -218 136 l-24 50 1 2140 c0 1762 2 2147 13 2178 49
137 214 199 346 130z m-4730 -2309 l0 -1616 -157 4 c-140 3 -163 6 -199 25
-60 32 -111 95 -123 155 -8 33 -11 500 -11 1451 1 1145 3 1409 14 1440 22 59
64 107 120 133 47 22 64 24 204 24 l152 0 0 -1616z m5578 1600 c46 -19 98 -68
123 -116 18 -36 19 -79 19 -1479 l0 -1443 -21 -43 c-49 -100 -128 -133 -326
-133 l-133 0 0 1615 0 1615 150 0 c113 0 160 -4 188 -16z"/>
</g>
</svg>
