<?xml version="1.0" standalone="no"?>
<!DOCTYPE svg PUBLIC "-//W3C//DTD SVG 20010904//EN"
 "http://www.w3.org/TR/2001/REC-SVG-20010904/DTD/svg10.dtd">
<svg version="1.0" xmlns="http://www.w3.org/2000/svg"
 width="168.000000pt" height="200.000000pt" viewBox="0 0 168.000000 200.000000"
 preserveAspectRatio="xMidYMid meet">

<g transform="translate(0.000000,200.000000) scale(0.100000,-0.100000)"
fill="#000000" stroke="none">
<path d="M1237 1966 l-27 -35 -33 30 -32 30 -26 -33 c-24 -28 -29 -31 -44 -18
-14 12 -19 10 -41 -12 -23 -22 -24 -28 -13 -46 12 -18 10 -24 -9 -45 -28 -30
-28 -41 4 -62 22 -14 28 -14 43 -3 9 7 5 1 -11 -14 -15 -15 -33 -25 -40 -23
-9 4 -13 -5 -12 -27 1 -23 9 -38 28 -52 l26 -20 54 58 54 59 58 -46 c81 -62
166 -146 160 -156 -12 -19 -15 -90 -4 -97 8 -5 9 -2 5 9 -3 9 -1 19 5 23 7 4
6 9 -3 15 -9 5 -10 9 -2 9 6 0 9 9 6 20 -3 11 -1 20 4 20 14 0 53 -30 53 -42
0 -6 -22 -35 -50 -64 -27 -29 -50 -56 -50 -61 0 -4 11 -21 24 -36 l24 -28 32
38 33 39 29 -29 29 -30 33 32 c25 24 35 28 44 19 10 -10 18 -7 39 14 23 23 24
29 13 43 -11 13 -10 21 10 47 l22 30 -25 26 c-23 22 -28 24 -44 12 -10 -8 2 7
26 32 l44 47 -29 25 c-35 31 -39 31 -56 7 -7 -10 -30 -37 -51 -60 l-38 -42
-62 56 c-34 30 -97 85 -139 121 -43 36 -78 69 -78 73 0 4 23 33 52 65 l51 58
-30 29 -30 30 -26 -35z m51 -8 c13 -13 11 -17 -134 -180 -95 -107 -108 -118
-122 -105 -13 14 -12 19 10 45 69 83 223 252 228 252 3 0 11 -5 18 -12z m-120
-11 c8 -10 -5 -31 -53 -87 -36 -41 -69 -76 -73 -78 -5 -1 -15 4 -21 12 -11 13
-2 28 55 91 38 41 71 75 75 75 4 0 11 -6 17 -13z m461 -324 c-84 -99 -232
-263 -238 -263 -5 0 -13 6 -19 13 -8 10 20 47 115 155 113 127 128 141 142
128 13 -14 13 -17 0 -33z m11 -88 c10 -12 1 -27 -55 -90 -37 -41 -71 -75 -75
-75 -4 0 -12 6 -18 13 -7 9 8 33 56 89 37 43 70 77 73 78 4 0 12 -7 19 -15z"/>
<path d="M389 1733 c-1 -5 -1 -12 0 -17 1 -5 -5 -4 -13 3 -16 14 -36 7 -35
-12 0 -9 2 -9 6 0 3 9 9 9 22 1 13 -8 23 -8 37 0 18 11 18 11 1 12 -10 0 -15
5 -12 10 3 6 4 10 1 10 -3 0 -7 -3 -7 -7z"/>
<path d="M431 1726 c32 -14 529 -10 529 5 0 7 -94 9 -277 8 -212 -1 -271 -4
-252 -13z"/>
<path d="M320 1162 l-1 -535 -24 -28 c-13 -16 -26 -38 -30 -49 -6 -19 -25 -28
-25 -12 0 4 -10 20 -23 35 -20 25 -24 26 -41 14 -18 -13 -17 -16 18 -61 20
-26 36 -51 36 -54 0 -4 -28 -14 -62 -22 -81 -20 -101 -46 -106 -138 -3 -55 1
-75 20 -112 26 -51 86 -100 153 -126 l46 -17 67 31 c37 18 86 36 110 41 24 5
52 17 63 26 21 20 53 101 64 161 9 56 -24 131 -77 179 -51 47 -83 59 -122 45
-31 -10 -31 -10 -10 8 29 23 58 71 49 80 -3 4 -25 7 -48 7 l-42 0 -2 508 c-2
375 1 506 9 501 8 -5 9 -2 5 9 -3 10 -2 17 3 17 18 0 10 18 -9 23 -19 5 -19
-8 -21 -531z m90 -551 c0 -25 -121 -103 -136 -88 -10 9 29 59 61 78 31 20 75
25 75 10z m-195 -67 c9 -15 12 -23 6 -20 -11 7 -35 46 -28 46 3 0 12 -12 22
-26z m250 -37 c25 -14 52 -43 73 -77 30 -49 33 -61 28 -108 -6 -64 -47 -158
-72 -165 -11 -3 -39 -11 -64 -17 -25 -6 -64 -23 -87 -36 -52 -30 -72 -30 -131
0 -60 31 -100 70 -118 112 -18 43 -18 125 0 169 15 35 34 44 131 61 22 3 69
24 105 45 36 22 72 39 80 39 8 0 33 -11 55 -23z m-168 -14 c-9 -9 -20 -13 -24
-9 -4 4 -1 11 7 16 25 16 35 11 17 -7z"/>
<path d="M633 1378 l-72 -71 -36 31 c-41 37 -70 41 -85 12 -14 -26 -5 -42 62
-108 l54 -52 108 109 c96 98 106 112 96 130 -20 38 -51 25 -127 -51z"/>
<path d="M862 1438 c-17 -17 -15 -32 6 -51 16 -14 44 -17 183 -17 90 0 174 3
186 6 27 7 39 40 23 59 -16 20 -379 22 -398 3z"/>
<path d="M1362 862 c0 -260 -2 -476 -6 -480 -4 -3 -4 2 0 13 7 18 6 19 -10 6
-16 -13 -16 -15 -1 -24 9 -5 20 -5 25 -1 14 17 19 71 7 84 -9 10 -9 14 1 17
10 4 12 93 12 419 -1 237 -5 412 -10 409 -5 -3 -11 3 -13 12 -3 10 -5 -195 -5
-455z"/>
<path d="M866 1274 c-19 -18 -19 -20 -6 -45 10 -18 23 -19 198 -19 188 0 212
4 212 36 0 7 -7 20 -16 28 -23 24 -365 24 -388 0z"/>
<path d="M440 930 c-6 -12 -10 -65 -9 -126 2 -143 3 -144 147 -144 71 0 114 4
125 13 15 11 17 29 15 142 l-3 130 -132 3 c-124 2 -133 1 -143 -18z m200 -125
l0 -66 -62 3 -63 3 -3 63 -3 62 66 0 65 0 0 -65z"/>
<path d="M860 891 c-13 -25 -13 -27 6 -45 23 -24 365 -24 388 0 9 8 16 21 16
28 0 32 -24 36 -212 36 -175 0 -188 -1 -198 -19z"/>
<path d="M862 728 c-17 -17 -15 -32 6 -51 27 -25 362 -25 386 -1 19 19 20 36
4 52 -17 17 -379 17 -396 0z"/>
<path d="M1290 363 c0 -4 -147 -7 -327 -5 -180 1 -325 0 -322 -2 8 -8 653 -8
673 0 14 6 17 4 11 -6 -5 -8 -3 -11 4 -9 7 3 12 9 12 14 0 12 -51 20 -51 8z"/>
<path d="M600 349 c0 -15 18 -19 23 -6 3 8 -1 14 -9 14 -8 0 -14 -4 -14 -8z"/>
</g>
</svg>
