<svg xmlns="http://www.w3.org/2000/svg" enable-background="new 0 0 510 510" viewBox="0 0 510 510" id="lunchbox" width="50" height="50"><g><g><g><g><g><path fill="#000000" d="M420.725 0h-140H69.275c-5.522 0-10 4.477-10 10 0 38.599 31.402 70 70 70h151.449c5.522 0 10-4.478 10-10V60h130c16.542 0 30-13.458 30-30S437.267 0 420.725 0zM270.725 60H129.275c-24.146 0-44.35-17.206-48.995-40h190.444C270.725 32.152 270.725 48.103 270.725 60zM420.725 40h-130V20h130c5.514 0 10 4.486 10 10S426.238 40 420.725 40zM410.725 120H189.973c-9.131-12.136-23.65-20-39.973-20H69.275c-5.522 0-10 4.478-10 10s4.478 10 10 10H150c13.036 0 24.152 8.361 28.28 20H69.275c-5.522 0-10 4.477-10 10s4.478 10 10 10H178.28c-4.128 11.639-15.243 20-28.28 20H69.275c-5.522 0-10 4.477-10 10s4.478 10 10 10H150c16.323 0 30.842-7.864 39.973-20h220.752c16.576 0 30-13.423 30-30C440.725 133.458 427.267 120 410.725 120zM410.725 160H198.994c1.298-6.367 1.385-13.202 0-20h211.731c5.514 0 10 4.486 10 10C420.725 155.52 416.248 160 410.725 160z"></path></g><g><path fill="#000000" d="M295,270h-80c-5.523,0-10,4.478-10,10s4.477,10,10,10h80
						c5.522,0,10-4.478,10-10S300.522,270,295,270z"></path><path fill="#000000" d="M510,250c0-16.542-13.458-30-30-30H30c-16.542,0-30,13.458-30,30
						c0,13.423,8.862,24.814,21.041,28.633l25.635,196.541C49.267,495.028,66.318,510,86.341,510h337.318
						c20.022,0,37.074-14.972,39.664-34.827l25.635-196.54C501.138,274.814,510,263.423,510,250z M443.491,472.586
						C442.196,482.514,433.67,490,423.659,490H86.341c-10.011,0-18.537-7.486-19.832-17.413L41.389,280H147.98l4.699,20H76.45
						c-5.991,0-10.643,5.241-9.929,11.191l15.886,132.383C84.215,458.64,97.02,470,112.193,470h285.613
						c15.174,0,27.979-11.36,29.786-26.426l15.886-132.383c0.714-5.948-3.936-11.191-9.929-11.191h-76.229l4.699-20h106.591
						L443.491,472.586z M352.421,320h69.858l-14.543,121.191c-0.603,5.021-4.871,8.809-9.929,8.809H112.193
						c-5.058,0-9.326-3.787-9.929-8.809L87.722,320h69.858c4.19,11.919,15.377,20,28.266,20h138.309
						C337.044,340,348.231,331.919,352.421,320z M480,260H354.098c-4.642,0-8.673,3.194-9.735,7.713
						c-0.42,1.787-10.17,43.284-10.474,44.574c-1.066,4.541-5.069,7.713-9.734,7.713H185.846c-4.665,0-8.668-3.172-9.735-7.713
						c-0.387-1.649-10.086-42.93-10.473-44.574c-1.063-4.519-5.094-7.713-9.735-7.713H30c-5.514,0-10-4.486-10-10s4.486-10,10-10
						h450c5.514,0,10,4.486,10,10S485.514,260,480,260z"></path></g></g></g></g></g></svg>