<?xml version="1.0" standalone="no"?>
<!DOCTYPE svg PUBLIC "-//W3C//DTD SVG 20010904//EN"
 "http://www.w3.org/TR/2001/REC-SVG-20010904/DTD/svg10.dtd">
<svg version="1.0" xmlns="http://www.w3.org/2000/svg"
 width="22.000000pt" height="22.000000pt" viewBox="0 0 1238.000000 1220.000000"
 preserveAspectRatio="xMidYMid meet">

<g transform="translate(0.000000,1220.000000) scale(0.100000,-0.100000)"
fill="#000000" stroke="none">
<path d="M3375 12116 c-73 -24 -122 -54 -168 -106 -83 -92 -81 -77 -85 -652
l-3 -507 -752 -4 c-821 -5 -787 -2 -1022 -67 -214 -60 -472 -205 -655 -368
-81 -73 -208 -223 -280 -331 -108 -161 -198 -384 -242 -602 l-23 -114 0 -3890
0 -3890 23 -114 c71 -349 219 -627 472 -882 156 -158 407 -318 615 -392 103
-36 279 -76 381 -86 59 -5 -146 -9 -606 -10 -422 -1 -686 -6 -673 -11 39 -16
182 -31 363 -40 229 -10 10621 -10 10850 0 181 9 324 24 363 40 13 5 -251 10
-673 11 -424 1 -663 5 -612 10 419 40 822 253 1100 582 191 226 307 464 374
767 l23 105 0 3910 0 3910 -23 105 c-66 299 -180 536 -364 756 -172 204 -367
351 -613 461 -160 72 -336 117 -515 133 -63 5 -415 10 -782 10 l-667 0 -3 508
-3 507 -27 57 c-38 81 -105 150 -180 183 -53 24 -70 27 -132 23 -99 -6 -182
-45 -245 -114 -87 -95 -85 -78 -89 -656 l-3 -508 -2349 0 -2349 0 -3 508 -3
507 -27 57 c-34 72 -103 147 -165 178 -57 29 -166 37 -228 16z m-255 -2144 c0
-238 10 -293 66 -378 99 -149 272 -189 437 -101 65 34 115 89 149 163 21 46
23 66 26 287 l4 237 2348 0 2348 0 4 -237 c4 -267 7 -280 85 -378 121 -153
356 -157 499 -8 78 82 87 122 92 391 l4 233 716 -3 717 -4 100 -27 c119 -32
274 -107 368 -178 201 -152 352 -411 386 -662 7 -48 11 -296 11 -638 l0 -559
-5336 0 -5335 0 3 603 4 602 27 100 c65 239 214 454 406 584 130 89 299 153
446 170 39 5 375 9 748 10 l677 1 0 -208z m8360 -5396 c0 -1966 -3 -2879 -11
-2933 -14 -103 -70 -271 -120 -359 -131 -230 -368 -410 -634 -482 l-100 -27
-4470 0 -4470 0 -100 28 c-367 101 -632 365 -733 732 l-27 100 -3 2898 -2
2897 5335 0 5335 0 0 -2854z"/>
<path d="M3995 7203 c-36 -9 -66 -36 -86 -75 -19 -38 -20 -60 -17 -1101 l3
-1062 23 -75 c66 -216 206 -388 387 -475 113 -54 171 -65 377 -72 l188 -6 2
-1518 c3 -1515 3 -1518 24 -1545 37 -50 72 -69 122 -68 59 1 95 24 122 78 20
42 20 51 20 1548 l0 1505 188 6 c214 6 266 17 392 79 67 34 103 60 170 128 92
93 139 163 177 268 54 146 53 134 53 1246 0 985 -1 1033 -19 1066 -27 52 -62
73 -120 74 -54 1 -88 -17 -125 -68 -21 -27 -21 -37 -24 -807 l-2 -779 -345 0
-345 0 0 767 c0 752 0 767 -20 809 -28 56 -63 78 -125 78 -62 0 -97 -22 -125
-78 -20 -42 -20 -57 -20 -809 l0 -767 -345 0 -345 0 -2 778 c-3 754 -4 778
-23 810 -31 51 -101 80 -160 65z m1853 -2091 c-3 -137 -3 -139 -41 -215 -48
-97 -113 -164 -202 -208 l-70 -34 -520 0 -520 0 -68 34 c-45 23 -86 54 -123
93 -96 104 -124 185 -124 355 l0 113 836 0 836 0 -4 -138z"/>
<path d="M8141 7170 c-298 -115 -474 -225 -685 -430 -299 -289 -483 -641 -568
-1085 -20 -103 -21 -151 -25 -736 -4 -540 -2 -634 11 -692 42 -182 174 -331
346 -389 62 -21 83 -22 493 -26 l427 -4 0 -1251 c0 -1223 1 -1253 20 -1284 28
-46 65 -67 120 -67 55 0 92 21 120 67 20 32 20 75 20 2930 0 2469 -2 2902 -14
2925 -47 90 -113 101 -265 42z m-1 -1690 l0 -1361 -423 3 -423 3 -42 28 c-52
34 -89 91 -103 158 -8 35 -10 225 -6 613 5 510 7 571 25 671 53 280 156 523
314 737 77 105 240 266 345 341 81 58 277 166 301 167 9 0 12 -279 12 -1360z"/>
</g>
</svg>
